<?xml version="1.0" encoding="iso-8859-1"?>
<!-- Generator: Adobe Illustrator 19.0.0, SVG Export Plug-In . SVG Version: 6.00 Build 0)  -->
<svg version="1.1" id="Capa_1" xmlns="http://www.w3.org/2000/svg" xmlns:xlink="http://www.w3.org/1999/xlink" x="0px" y="0px"
	 viewBox="0 0 512 512" style="enable-background:new 0 0 512 512;" xml:space="preserve">

	<rect width="512" height="512" rx="30" ry="30" fill="#1976D2"/>
	<rect x="30" y="200" style="fill:#FFFFFF;" width="90" height="280"/>
	<path style="fill:#FFFFFF;" d="M426.368,204.128c-1.216-0.384-2.368-0.8-3.648-1.152c-1.536-0.352-3.072-0.64-4.64-0.896
		c-6.08-1.216-12.736-2.08-20.544-2.08l0,0l0,0c-66.752,0-109.088,48.544-123.04,67.296V200H180v280h90V320
		c0,0,86-120,123-32c0,79.008,0,224,0,195,H502V314.464C502,261.28,465.552,216.96,426.368,204.128z"/>
	<circle style="fill:#FFFFFF;" cx="75" cy="96" r="40"/>
</svg>
